<svg xmlns="http://www.w3.org/2000/svg" preserveAspectRatio="xMinYMin meet" viewBox="0 0 256 270">
  <path fill="#B3B3B3" d="M127.6.3L.8 45l20 166.1 107 58.8 107.4-59.6 20-166L127.6.3z"/>
  <path fill="#A6120D" d="M242.5 53.8L127.3 14.5v241.2l96.6-53.4 18.6-148.5z"/>
  <path fill="#DD1B16" d="M15 54.5L32.3 203l95.1 52.7V14.5l-112.2 40z"/>
  <path fill="#F2F2F2" d="M159 142.9l-31.7 14.8H94L78.2 197l-29.3.6 78.4-174.4L159 143zm-3-7.5l-28.5-56.3-23.3 55.4h23.1l28.7 1z"/>
  <path fill="#B3B3B3" d="M127.3 23.2l.2 56 26.5 55.3h-26.6v23.2H164l17.2 39.9 28 .5-82-174.9z"/>
</svg>
