<svg xmlns="http://www.w3.org/2000/svg" fill="none" viewBox="0 0 512 512">
  <g clip-path="url(#clip0)">
    <path fill="url(#paint0_linear)" d="M355.8 10.4C348 15 335 28 319.4 47l14.3 27a352.4 352.4 0 0131.7-39.6l-1.2 1.3a319 319 0 00-28.7 38.8c14.7-.7 37.2-3.7 55.6-6.9 5.4-30.6-5.4-44.6-5.4-44.6S372 .8 355.8 10.4z"/>
    <path fill="#BE202E" d="M307.8 236.9l-5.6 1 5.6-1z"/>
    <path fill="#BE202E" d="M307.8 236.9l-5.6 1 5.6-1z" opacity=".3"/>
    <path fill="#BE202E" d="M312.6 213.3l.9-.1 3.5-.6-4.4.7z"/>
    <path fill="#BE202E" d="M312.6 213.3l.9-.1 3.5-.6-4.4.7z" opacity=".3"/>
    <path fill="url(#paint1_linear)" d="M291.5 143.8a872.7 872.7 0 0127.2-47.1l.9-1.4c4.5-7.2 9.2-14.3 14-21.2l-14.2-27-3.3 4a796.4 796.4 0 00-54.8 78.4l-.4.8 18.6 36.7 12-23.2z"/>
    <path fill="url(#paint2_linear)" d="M206.8 350.7l-7.4 20.7v.3l-1.1 3-6.5 18.7c5.5 2.5 9.9 9.1 14 16.6a30 30 0 00-9.6-20.6c27 1.2 50.2-5.6 62.3-25.4l2.9-5.6c-5.5 7-12.2 9.9-25 9.2 18.8-8.4 28.2-16.5 36.5-29.9 2-3.1 4-6.6 5.9-10.5a58.9 58.9 0 01-55.5 18l-15 1.7-1.5 3.8z"/>
    <path fill="url(#paint3_linear)" d="M213.9 317c9.7-25.2 20-50.3 30.7-75.1a1484.5 1484.5 0 0134.5-74.1l.4-.8-18.6-36.7-1 1.5a820.2 820.2 0 00-37.5 68.2 543.4 543.4 0 00-26.2 64.3 462.6 462.6 0 00-10.8 41.6l18.7 36.9a2578 2578 0 019.8-25.8z"/>
    <path fill="url(#paint4_linear)" d="M185.1 307.2c-2.3 11.6-4 23.4-4.8 35.3l-.1 1.2a74 74 0 00-21.4-18.4c11.1 16.2 19.6 32.3 20.9 48-6 1.3-14.2-.5-23.7-4 10 9.1 17.3 11.6 20.2 12.3-9 .6-18.5 6.8-28 14 13.9-5.7 25.1-8 33.2-6.1A2741.4 2741.4 0 00143 508c4-1.2 6.3-3.8 7.6-7.4 2.3-7.6 17.4-58 41.2-124.2l2-5.7.6-1.6 7.8-21.3 1.8-4.9-18.6-37-.3 1.3z"/>
    <path fill="url(#paint5_linear)" d="M282.4 170.1l-1.6 3.3-5 10.2-5.3 11.5-2.8 6a2101.8 2101.8 0 00-59.2 145.3l-.3.5 15-1.6-.8-.2c18-2.2 41.9-15.6 57.3-32.2 7.1-7.7 13.6-16.7 19.6-27.2 4.4-7.9 8.6-16.6 12.6-26.2 3.7-9 7-18.2 10-27.5A54.5 54.5 0 01302 238a65.5 65.5 0 0035.1-34.2 59.7 59.7 0 01-23.7 9.5l-1 .1h.1c5.3-2.1 10.4-5 15-8.4a52.7 52.7 0 0014.6-16.7l1.6-3.2a178.3 178.3 0 009.7-24.3c.6-2 1-3.7 1.1-5-.5.5-1.2 1-2 1.4-5 3-13.7 5.8-20.7 7l13.8-1.4-13.8 1.5h-.3l-2.1.4.4-.2-47.3 5.2-.2.5z"/>
    <path fill="url(#paint6_linear)" d="M335.5 74.6c-4.7 7.3-9.3 14.6-13.7 22L321 98c-4.2 7.2-8.8 15-13.5 23.7a1167 1167 0 00-24.9 47.9l47.3-5.2c13.7-6.3 19.9-12 25.9-20.3l4.7-7.2A298 298 0 00385 89.6a121.6 121.6 0 006.2-21.8c-18.4 3-40.9 6-55.6 6.8z"/>
    <path fill="#BE202E" d="M312.5 213.3l1-.1-1 .1z"/>
    <path fill="#BE202E" d="M312.5 213.3l1-.1-1 .1z" opacity=".3"/>
    <path fill="url(#paint7_linear)" d="M312.5 213.3l1-.1-1 .1z"/>
    <path fill="#BE202E" d="M312.6 213.3z"/>
    <path fill="#BE202E" d="M312.6 213.3z" opacity=".3"/>
    <path fill="url(#paint8_linear)" d="M312.6 213.3z"/>
    <path fill="#6D6E71" d="M405.5 53.8v1.4h3.2v9.1h1.5v-9.1h3.3v-1.4h-8zm18.7 0l-3.6 7.3-3.7-7.3h-1.8v10.5h1.4V56l3.6 7.2h1l3.5-7.2v8.3h1.4V53.8h-1.8z"/>
  </g>
  <defs>
    <linearGradient id="paint0_linear" x1="331.5" x2="436.2" y1="50.4" y2="21.3" gradientUnits="userSpaceOnUse">
      <stop stop-color="#F69923"/>
      <stop offset=".3" stop-color="#F79A23"/>
      <stop offset=".8" stop-color="#E97826"/>
    </linearGradient>
    <linearGradient id="paint1_linear" x1="102.3" x2="315.3" y1="520.2" y2="63.6" gradientUnits="userSpaceOnUse">
      <stop offset=".3" stop-color="#9E2064"/>
      <stop offset=".6" stop-color="#C92037"/>
      <stop offset=".8" stop-color="#CD2335"/>
      <stop offset="1" stop-color="#E97826"/>
    </linearGradient>
    <linearGradient id="paint2_linear" x1="173.8" x2="300.7" y1="486.5" y2="214.4" gradientUnits="userSpaceOnUse">
      <stop stop-color="#282662"/>
      <stop offset=".1" stop-color="#662E8D"/>
      <stop offset=".8" stop-color="#9F2064"/>
      <stop offset=".9" stop-color="#CD2032"/>
    </linearGradient>
    <linearGradient id="paint3_linear" x1="110" x2="323" y1="492.6" y2="36" gradientUnits="userSpaceOnUse">
      <stop offset=".3" stop-color="#9E2064"/>
      <stop offset=".6" stop-color="#C92037"/>
      <stop offset=".8" stop-color="#CD2335"/>
      <stop offset="1" stop-color="#E97826"/>
    </linearGradient>
    <linearGradient id="paint4_linear" x1="131.8" x2="243.7" y1="462.2" y2="222.2" gradientUnits="userSpaceOnUse">
      <stop stop-color="#282662"/>
      <stop offset=".1" stop-color="#662E8D"/>
      <stop offset=".8" stop-color="#9F2064"/>
      <stop offset=".9" stop-color="#CD2032"/>
    </linearGradient>
    <linearGradient id="paint5_linear" x1="157.3" x2="370.2" y1="514.7" y2="58" gradientUnits="userSpaceOnUse">
      <stop offset=".3" stop-color="#9E2064"/>
      <stop offset=".6" stop-color="#C92037"/>
      <stop offset=".8" stop-color="#CD2335"/>
      <stop offset="1" stop-color="#E97826"/>
    </linearGradient>
    <linearGradient id="paint6_linear" x1="141.8" x2="354.7" y1="541.9" y2="85.2" gradientUnits="userSpaceOnUse">
      <stop offset=".3" stop-color="#9E2064"/>
      <stop offset=".6" stop-color="#C92037"/>
      <stop offset=".8" stop-color="#CD2335"/>
      <stop offset="1" stop-color="#E97826"/>
    </linearGradient>
    <linearGradient id="paint7_linear" x1="169.8" x2="382.7" y1="520.5" y2="63.8" gradientUnits="userSpaceOnUse">
      <stop offset=".3" stop-color="#9E2064"/>
      <stop offset=".6" stop-color="#C92037"/>
      <stop offset=".8" stop-color="#CD2335"/>
      <stop offset="1" stop-color="#E97826"/>
    </linearGradient>
    <linearGradient id="paint8_linear" x1="289.1" x2="336.2" y1="263.8" y2="162.8" gradientUnits="userSpaceOnUse">
      <stop offset=".3" stop-color="#9E2064"/>
      <stop offset=".6" stop-color="#C92037"/>
      <stop offset=".8" stop-color="#CD2335"/>
      <stop offset="1" stop-color="#E97826"/>
    </linearGradient>
    <clipPath id="clip0">
      <path fill="#fff" d="M0 0h283v500H0z" transform="translate(143 8)"/>
    </clipPath>
  </defs>
</svg>
