<svg width="256" height="145" viewBox="0 0 256 145" fill="none" xmlns="http://www.w3.org/2000/svg">
<path fill-rule="evenodd" clip-rule="evenodd" d="M147.488 45.732H170.354V69.107H181.915C187.255 69.107 192.746 68.156 197.802 66.443C200.287 65.6 203.075 64.428 205.526 62.953C202.298 58.739 200.65 53.418 200.166 48.173C199.506 41.038 200.946 31.752 205.774 26.168L208.178 23.388L211.042 25.691C218.253 31.484 224.318 39.58 225.387 48.809C234.07 46.255 244.265 46.859 251.918 51.276L255.058 53.088L253.406 56.314C246.933 68.946 233.4 72.86 220.17 72.167C200.373 121.476 157.272 144.82 105.013 144.82C78.013 144.82 53.243 134.727 39.137 110.773L38.906 110.383L36.851 106.201C32.083 95.657 30.499 84.106 31.573 72.564L31.896 69.107H51.45V45.732H74.315V22.866H120.048V0H147.488V45.732Z" fill="#364548"/>
<path fill-rule="evenodd" clip-rule="evenodd" d="M221.57 54.38C223.103 42.464 214.186 33.105 208.656 28.661C202.283 36.029 201.293 55.339 211.291 63.469C205.711 68.425 193.954 72.917 181.915 72.917H35.37C34.2 85.484 36.406 97.057 41.445 106.962L43.112 110.012C44.1675 111.802 45.3209 113.533 46.567 115.196C52.592 115.583 58.147 115.716 63.229 115.604H63.231C73.218 115.384 81.367 114.204 87.543 112.064C87.9796 111.928 88.4519 111.968 88.8601 112.174C89.2682 112.38 89.5801 112.737 89.7299 113.169C89.8797 113.601 89.8555 114.074 89.6626 114.489C89.4696 114.903 89.123 115.226 88.696 115.39C87.874 115.676 87.018 115.942 86.134 116.195H86.131C81.268 117.584 76.053 118.518 69.325 118.933C69.725 118.94 68.909 118.993 68.907 118.993C68.678 119.008 68.39 119.041 68.16 119.053C65.512 119.202 62.654 119.233 59.732 119.233C56.536 119.233 53.389 119.173 49.87 118.993L49.78 119.053C61.99 132.777 81.082 141.008 105.014 141.008C155.662 141.008 198.622 118.556 217.646 68.151C231.142 69.536 244.113 66.094 250.013 54.576C240.615 49.153 228.529 50.882 221.57 54.38" fill="#22A0C8"/>
<path fill-rule="evenodd" clip-rule="evenodd" d="M221.57 54.38C223.103 42.464 214.186 33.105 208.656 28.661C202.283 36.029 201.293 55.339 211.291 63.469C205.711 68.425 193.954 72.917 181.915 72.917H44.048C43.45 92.163 50.592 106.772 63.228 115.604H63.231C73.218 115.384 81.367 114.204 87.543 112.064C87.9796 111.928 88.452 111.968 88.8601 112.174C89.2682 112.38 89.5802 112.737 89.7299 113.169C89.8797 113.601 89.8556 114.074 89.6626 114.489C89.4697 114.903 89.123 115.226 88.696 115.39C87.874 115.676 87.018 115.942 86.134 116.195H86.131C81.268 117.584 75.605 118.638 68.877 119.053C68.875 119.053 68.714 118.898 68.712 118.898C85.949 127.74 110.942 127.708 139.597 116.701C171.727 104.357 201.626 80.841 222.487 53.944C222.173 54.086 221.867 54.231 221.57 54.38" fill="#37B1D9"/>
<path fill-rule="evenodd" clip-rule="evenodd" d="M35.645 88.186C36.555 94.918 38.525 101.221 41.445 106.962L43.112 110.012C44.1674 111.802 45.3208 113.533 46.567 115.196C52.593 115.583 58.148 115.716 63.231 115.604C73.218 115.384 81.367 114.204 87.543 112.064C87.9796 111.928 88.452 111.968 88.8601 112.174C89.2682 112.38 89.5802 112.737 89.7299 113.169C89.8797 113.601 89.8556 114.074 89.6626 114.489C89.4696 114.903 89.123 115.226 88.696 115.39C87.874 115.676 87.018 115.942 86.134 116.195H86.131C81.268 117.584 75.635 118.578 68.907 118.994C68.676 119.008 68.273 119.011 68.04 119.024C65.394 119.172 62.565 119.263 59.642 119.263C56.447 119.263 53.179 119.202 49.662 119.023C61.872 132.747 81.082 141.008 105.014 141.008C148.374 141.008 186.098 124.55 207.993 88.186H35.645Z" fill="#1B81A5"/>
<path fill-rule="evenodd" clip-rule="evenodd" d="M45.367 88.186C47.959 100.006 54.188 109.285 63.231 115.604C73.218 115.384 81.367 114.204 87.543 112.064C87.9796 111.928 88.4519 111.968 88.8601 112.174C89.2682 112.38 89.5801 112.737 89.7299 113.169C89.8797 113.601 89.8555 114.074 89.6626 114.489C89.4696 114.903 89.123 115.226 88.696 115.39C87.874 115.676 87.018 115.942 86.134 116.195H86.131C81.268 117.584 75.516 118.578 68.787 118.994C86.023 127.834 110.944 127.707 139.597 116.701C156.931 110.041 173.614 100.127 188.581 88.186H45.367Z" fill="#1D91B4"/>
<path fill-rule="evenodd" clip-rule="evenodd" d="M55.26 49.543H75.078V69.361H55.26V49.543ZM56.911 51.195H58.475V67.71H56.911V51.195ZM59.851 51.195H61.478V67.71H59.852V51.195H59.851ZM62.853 51.195H64.48V67.71H62.853V51.195ZM65.857 51.195H67.483V67.71H65.857V51.195ZM68.86 51.195H70.486V67.71H68.86V51.195ZM71.862 51.195H73.427V67.71H71.862V51.195ZM78.126 26.677H97.945V46.494H78.125V26.677H78.126ZM79.778 28.329H81.341V44.843H79.778V28.329ZM82.718 28.329H84.344V44.843H82.719V28.329H82.718ZM85.72 28.329H87.346V44.843H85.72V28.329ZM88.723 28.329H90.349V44.843H88.723V28.329ZM91.726 28.329H93.353V44.843H91.726V28.329ZM94.728 28.329H96.294V44.843H94.728V28.329Z" fill="#23A3C2"/>
<path fill-rule="evenodd" clip-rule="evenodd" d="M78.126 49.543H97.945V69.361H78.125V49.543H78.126ZM79.778 51.195H81.341V67.71H79.778V51.195ZM82.718 51.195H84.344V67.71H82.719V51.195H82.718ZM85.72 51.195H87.346V67.71H85.72V51.195ZM88.723 51.195H90.349V67.71H88.723V51.195ZM91.726 51.195H93.353V67.71H91.726V51.195ZM94.728 51.195H96.294V67.71H94.728V51.195Z" fill="#34BBDE"/>
<path fill-rule="evenodd" clip-rule="evenodd" d="M100.993 49.543H120.811V69.361H100.993V49.543ZM102.644 51.195H104.207V67.71H102.644V51.195ZM105.584 51.195H107.21V67.71H105.584V51.195ZM108.587 51.195H110.213V67.71H108.587V51.195ZM111.59 51.195H113.216V67.71H111.59V51.195ZM114.592 51.195H116.22V67.71H114.592V51.195ZM117.595 51.195H119.159V67.71H117.595V51.195V51.195Z" fill="#23A3C2"/>
<path fill-rule="evenodd" clip-rule="evenodd" d="M100.993 26.677H120.811V46.494H100.993V26.677ZM102.644 28.329H104.207V44.843H102.644V28.329ZM105.584 28.329H107.21V44.843H105.584V28.329ZM108.587 28.329H110.213V44.843H108.587V28.329ZM111.59 28.329H113.216V44.843H111.59V28.329ZM114.592 28.329H116.22V44.843H114.592V28.329ZM117.595 28.329H119.159V44.843H117.595V28.329V28.329ZM123.859 49.543H143.677V69.361H123.859V49.543ZM125.511 51.195H127.074V67.71H125.511V51.195ZM128.451 51.195H130.077V67.71H128.451V51.195ZM131.453 51.195H133.079V67.71H131.453V51.195ZM134.456 51.195H136.083V67.71H134.456V51.195ZM137.459 51.195H139.086V67.71H137.459V51.195ZM140.462 51.195H142.026V67.71H140.462V51.195Z" fill="#34BBDE"/>
<path fill-rule="evenodd" clip-rule="evenodd" d="M123.859 26.677H143.677V46.494H123.859V26.677ZM125.511 28.329H127.074V44.843H125.511V28.329ZM128.451 28.329H130.077V44.843H128.451V28.329ZM131.453 28.329H133.079V44.843H131.453V28.329ZM134.456 28.329H136.083V44.843H134.456V28.329ZM137.459 28.329H139.086V44.843H137.459V28.329ZM140.462 28.329H142.026V44.843H140.462V28.329Z" fill="#23A3C2"/>
<path fill-rule="evenodd" clip-rule="evenodd" d="M123.859 3.81H143.677V23.63H123.859V3.81ZM125.511 5.461H127.074V21.977H125.511V5.46V5.461ZM128.451 5.461H130.077V21.977H128.451V5.46V5.461ZM131.453 5.461H133.079V21.977H131.453V5.46V5.461ZM134.456 5.461H136.083V21.977H134.456V5.46V5.461ZM137.459 5.461H139.086V21.977H137.459V5.46V5.461ZM140.462 5.461H142.026V21.977H140.462V5.46V5.461Z" fill="#34BBDE"/>
<path fill-rule="evenodd" clip-rule="evenodd" d="M146.725 49.543H166.543V69.361H146.725V49.543ZM148.375 51.195H149.94V67.71H148.376V51.195H148.375ZM151.315 51.195H152.942V67.71H151.316V51.195H151.315ZM154.319 51.195H155.946V67.71H154.319V51.195ZM157.321 51.195H158.948V67.71H157.321V51.195ZM160.325 51.195H161.951V67.71H160.325V51.195ZM163.327 51.195H164.891V67.71H163.327V51.195Z" fill="#23A3C2"/>
<path fill-rule="evenodd" clip-rule="evenodd" d="M96.704 101.492C97.4283 101.482 98.1472 101.617 98.8191 101.887C99.4909 102.158 100.102 102.559 100.618 103.068C101.133 103.576 101.543 104.183 101.822 104.851C102.101 105.519 102.245 106.236 102.245 106.961C102.245 107.685 102.101 108.402 101.821 109.07C101.542 109.738 101.132 110.344 100.616 110.853C100.101 111.361 99.4892 111.762 98.8172 112.033C98.1452 112.303 97.4262 112.437 96.702 112.427C95.2648 112.407 93.8931 111.822 92.8837 110.799C91.8744 109.776 91.3087 108.396 91.309 106.959C91.3092 105.521 91.8755 104.142 92.8851 103.119C93.8948 102.096 95.2668 101.511 96.704 101.492Z" fill="#D3ECEC"/>
<path fill-rule="evenodd" clip-rule="evenodd" d="M96.704 103.043C97.204 103.043 97.681 103.137 98.121 103.308C97.8174 103.484 97.5802 103.756 97.4463 104.08C97.3123 104.405 97.2889 104.764 97.3797 105.103C97.4705 105.442 97.6705 105.742 97.9487 105.956C98.2269 106.171 98.5679 106.287 98.919 106.288C99.524 106.288 100.049 105.953 100.321 105.457C100.643 106.233 100.707 107.092 100.504 107.907C100.3 108.722 99.8398 109.449 99.1908 109.983C98.5418 110.516 97.7385 110.826 96.8996 110.868C96.0606 110.91 95.2305 110.681 94.5319 110.214C93.8332 109.748 93.303 109.069 93.0197 108.279C92.7363 107.488 92.7148 106.627 92.9583 105.823C93.2018 105.019 93.6974 104.315 94.3719 103.814C95.0464 103.314 95.864 103.043 96.704 103.043V103.043ZM0 90.162H254.327C248.79 88.758 236.807 86.86 238.783 79.602C228.713 91.254 204.43 87.777 198.301 82.032C191.477 91.93 151.747 88.167 148.976 80.456C140.42 90.497 113.909 90.497 105.353 80.456C102.58 88.167 62.851 91.93 56.026 82.031C49.898 87.777 25.616 91.254 15.546 79.603C17.522 86.86 5.539 88.758 0 90.163" fill="#364548"/>
<path fill-rule="evenodd" clip-rule="evenodd" d="M111.237 140.89C97.697 134.465 90.266 125.73 86.131 116.196C81.101 117.631 75.056 118.549 68.031 118.943C65.385 119.091 62.601 119.167 59.681 119.167C56.313 119.167 52.764 119.067 49.038 118.87C61.455 131.28 76.73 140.834 105.014 141.008C107.102 141.008 109.174 140.968 111.237 140.89" fill="#BDD9D7"/>
<path fill-rule="evenodd" clip-rule="evenodd" d="M91.16 124.994C89.287 122.451 87.47 119.255 86.134 116.194C81.104 117.631 75.057 118.549 68.031 118.944C72.857 121.563 79.758 123.99 91.161 124.994" fill="#D3ECEC"/>
</svg>
