<svg xmlns="http://www.w3.org/2000/svg" fill="none" viewBox="0 0 512 512">
  <path fill="url(#paint0_linear)" d="M87 139s22-25 38-35c5-3 42-23 66 44 14 37 14 64-16 76-18 7-12 20-12 20"/>
  <path fill="#363254" d="M123 101c-16 10-38 35-39 36-2 1-2 4 0 5h5c1-1 23-25 38-35 1 0 12-8 25-3 14 4 27 20 36 45 14 41 10 62-15 72-7 2-11 6-13 11-3 7 0 13 0 14 1 1 3 2 5 1 2 0 3-3 2-5 0 0-2-3 0-7 1-3 4-6 9-8 37-14 30-50 19-80-10-28-24-45-40-50-17-6-31 3-32 4"/>
  <path fill="url(#paint1_linear)" d="M393 154h47c4 0 8 2 8 6 0 3-4 5-8 5h-37l-10-11z"/>
  <path fill="#363254" d="M440 157c2 0 4 2 4 3l-4 2h-35l-4-5h39zm-56-7l17 19h39c7 0 12-4 12-9 0-6-5-10-12-10h-56z"/>
  <path fill="#8B9DD7" d="M455 140c7-3 14-2 17 2s0 10-6 13c-7 3-24 6-27 2s10-14 16-17z"/>
  <path fill="#363254" d="M457 143c5-2 11-1 12 1l1 2c-1 1-3 4-6 5-6 3-18 5-21 4 1-3 8-9 14-12zm-3-6c-6 2-17 11-19 17l1 6c5 7 27 0 31-2 5-2 9-6 10-10 1-3 0-6-1-8-4-6-14-7-22-3z"/>
  <path fill="#8B9DD7" d="M467 164c7 2 11 8 9 12-3 4-10 6-17 4-7-3-21-12-19-16s20-2 27 0z"/>
  <path fill="#363254" d="M468 160zm-2 7l6 5v2c-1 3-6 4-12 2s-14-8-16-10c3-1 15-1 22 1zm-29-4v5c2 6 15 13 21 15 9 3 18 1 21-5l1-5-1-4c-1-4-6-7-11-9-5-1-27-5-31 3"/>
  <path fill="#8B9DD7" d="M468 150c10 0 19 4 19 9s-8 8-19 8c-10 1-34-3-34-8 0-4 23-8 34-9z"/>
  <path fill="#363254" d="M483 159l-1 1c-1 2-7 4-14 4-9 0-23-3-29-5 6-2 20-5 29-5 10 0 15 4 15 5zm-15-12c-8 0-30 3-36 8l-2 4c0 11 38 12 38 12 9 0 16-2 20-6l3-6c0-7-10-12-23-12z"/>
  <path fill="url(#paint2_linear)" d="M226 271v94c0 24-23 32-52 32s-52-8-52-32v-95"/>
  <path fill="#363254" d="M118 270v95c0 23 20 36 56 36s56-13 56-36v-94c0-2-2-4-4-4s-4 2-4 4v94c0 24-26 28-48 28s-48-4-48-28v-95c0-2-2-4-4-4s-4 2-4 4z"/>
  <path fill="#8B9DD7" d="M145 365c0 10-6 17-13 17-6 0-12-7-12-17 0-9 6-31 12-31 7 0 13 22 13 31z"/>
  <path fill="#363254" d="M121 365c0-10 6-29 11-29 6 0 11 19 11 29 0 9-5 16-11 16s-11-7-11-16zm-2 0c0 10 6 19 13 19 8 0 14-9 14-19 0-9-5-32-14-32-8 0-13 23-13 32z"/>
  <path fill="#A6BDE6" d="M123 367c0-9 7-26 12-26l1 1c-1-3-2-5-4-5-5 0-9 21-9 30z"/>
  <path fill="#8B9DD7" d="M151 374c0 8-5 14-10 14-6 0-10-6-10-14 0-7 4-23 10-23 5 0 10 16 10 23z"/>
  <path fill="#363254" d="M132 374c0-7 5-22 9-22s8 15 8 22-4 12-8 12c-5 0-9-5-9-12zm-2 0c0 8 5 15 11 15s11-7 11-15c0-6-4-25-11-25s-11 19-11 25z"/>
  <path fill="#A6BDE6" d="M135 370c0-5 4-14 8-14h1c-1-2-3-3-4-2-3 1-5 11-5 16z"/>
  <path fill="url(#paint3_linear)" d="M386 272v95c0 23-24 31-52 31-29 0-53-8-53-31v-96"/>
  <path fill="#363254" d="M278 271v96c0 22 19 35 56 35 16 0 29-3 38-8 12-6 18-15 18-27v-95c0-2-2-4-4-4s-4 2-4 4v95c0 9-4 16-13 21-9 4-21 7-35 7-22 0-49-5-49-28v-96c0-2-1-4-4-4-2 0-3 2-3 4z"/>
  <path fill="#7483CA" d="M304 366c0 10-5 18-12 18s-12-8-12-18c0-9 5-30 12-30s12 21 12 30z"/>
  <path fill="#363254" d="M281 366l3-18c3-7 6-11 8-11 5 0 11 19 11 29 0 9-5 16-11 16s-11-7-11-16zm1-19c-2 6-4 14-4 19 0 11 6 19 14 19 7 0 14-8 14-19 0-9-6-32-14-32-5 0-8 7-10 13z"/>
  <path fill="#839AD6" d="M283 368c0-9 7-25 12-25h1c-1-3-3-5-4-5-5 0-9 21-9 30z"/>
  <path fill="#7483CA" d="M310 376c0 7-4 13-10 13-5 0-9-6-9-13 0-8 4-24 9-24 6 0 10 16 10 24z"/>
  <path fill="#363254" d="M292 376c0-8 4-23 8-23s9 15 9 23c0 6-4 12-9 12-4 0-8-6-8-12zm-3 0c0 7 5 14 11 14s11-7 11-14-4-26-11-26-11 19-11 26z"/>
  <path fill="#839AD6" d="M295 371c-1-5 4-14 7-14h1c-1-2-2-3-3-2-3 1-6 11-5 16z"/>
  <path fill="url(#paint4_linear)" d="M182 141c21 33 18 61-9 75-16 9-7 20-7 20"/>
  <path fill="#080604" d="M180 138c-2 1-2 3-1 5 11 18 15 35 12 48-3 9-9 17-20 22-6 4-10 8-11 13-1 7 3 12 3 13 1 1 4 2 5 0 2-1 2-3 1-5 0 0-2-3-1-7 0-2 3-5 7-7 12-7 20-16 23-27 4-15 0-34-12-54-1-1-4-2-6-1z"/>
  <path fill="url(#paint5_linear)" d="M301 118l-157 4C21 126 25 170 25 233v151c0 13 11 18 25 18s25-5 25-18l6-70c6-95 123 16 207 11 77-5 138-31 138-94 0-62-40-113-125-113z"/>
  <path fill="#363254" d="M29 384V233v-7c0-58 0-97 115-101 122-4 157-3 157-3 39 0 70 11 91 32 20 19 30 46 30 77 0 68-73 87-134 90-32 2-70-13-104-27-37-16-69-29-89-18-11 6-17 19-18 38l-6 70c0 12-13 14-21 14s-21-2-21-14zm115-266C21 122 21 166 21 226v158c0 14 11 22 29 22s29-8 29-22l6-69c1-17 5-28 14-32 16-10 48 3 82 17 35 15 73 31 107 29 91-6 141-40 141-98 0-33-10-62-31-82-23-23-56-35-97-35l-157 4"/>
  <path fill="url(#paint6_linear)" d="M28 237c1 14-1 138 6 146-2-6 3-126 3-134v-4-6l-9-4v2z"/>
  <path fill="url(#paint7_linear)" d="M301 122l-154 4C27 130 29 174 29 233v2l8 4c0-56 3-97 119-101 121-4 154-3 154-3 46 0 77 15 97 39-18-31-52-52-106-52z"/>
  <path fill="url(#paint8_linear)" d="M259 314v68c0 23-23 31-52 31s-52-8-52-31V279"/>
  <path fill="#363254" d="M151 279v103c0 22 20 35 56 35s56-13 56-35v-68c0-2-2-4-4-4s-4 2-4 4v68c0 23-26 28-48 28s-49-5-49-28V279c0-2-1-4-3-4-3 0-4 2-4 4z"/>
  <path fill="#8B9DD7" d="M187 388c0 9-7 16-16 16s-17-7-17-16 8-29 17-29 16 20 16 29z"/>
  <path fill="#363254" d="M156 388c0-8 7-27 15-27s15 19 15 27-7 15-15 15-15-7-15-15zm-3 0c0 10 8 17 18 17s18-7 18-17c0-9-8-30-18-30s-18 21-18 30z"/>
  <path fill="#A6BDE6" d="M157 389c0-8 9-22 16-22l2 1c-2-3-3-4-6-4-6 0-12 17-12 25z"/>
  <path fill="#8B9DD7" d="M201 389c0 12-8 21-17 21-10 0-17-9-17-21 0-11 7-37 17-37 9 0 17 26 17 37z"/>
  <path fill="#363254" d="M168 389c0-11 8-36 16-36s16 25 16 36-8 20-16 20c-9 0-16-9-16-20zm-3 0c0 13 9 23 19 23s18-10 18-23c0-11-8-39-18-39-11 0-19 28-19 39z"/>
  <path fill="#A6BDE6" d="M171 391c0-11 10-31 16-31l2 1c-2-4-3-6-6-6-6 0-12 25-12 36z"/>
  <path fill="#8B9DD7" d="M210 396c0 8-6 14-13 14-6 0-12-6-12-14 0-9 6-27 12-27 7 0 13 18 13 27z"/>
  <path fill="#363254" d="M186 396c0-9 6-26 11-26 6 0 11 17 11 26 0 7-4 13-11 13-6 0-11-6-11-13zm-2 0c0 8 6 16 13 16 8 0 14-8 14-16s-5-28-14-28c-8 0-13 20-13 28z"/>
  <path fill="#A6BDE6" d="M190 391c0-6 6-16 10-17l1 1-4-3c-4 2-7 13-7 19z"/>
  <path fill="url(#paint9_linear)" d="M419 268v111c0 23-24 32-53 32-28 0-52-9-52-32v-64"/>
  <path fill="#363254" d="M415 268v111c0 23-27 28-49 28s-48-5-48-28v-64c0-2-2-4-4-4s-4 2-4 4v64c0 23 20 35 56 35 37 0 56-12 56-35V268c0-2-1-4-3-4-3 0-4 2-4 4z"/>
  <path fill="#8B9DD7" d="M347 385c0 9-7 16-16 16s-17-7-17-16c0-8 8-28 17-28s16 20 16 28z"/>
  <path fill="#363254" d="M315 385c0-8 8-27 16-27 7 0 15 19 15 27 0 9-7 15-15 15-9 0-16-6-16-15zm-2 0c0 10 8 18 18 18 9 0 17-8 17-18 0-8-7-29-17-29-11 0-18 21-18 29z"/>
  <path fill="#A6BDE6" d="M317 387c0-8 9-22 16-22h2c-2-2-4-4-6-4-7 0-12 18-12 26z"/>
  <path fill="#8B9DD7" d="M360 387c0 11-7 21-17 21-9 0-17-10-17-21 0-12 8-38 17-38 10 0 17 26 17 38z"/>
  <path fill="#363254" d="M328 387c0-12 7-37 15-37 9 0 16 25 16 37 0 11-7 20-16 20-8 0-15-9-15-20zm-3 0c0 12 8 22 18 22 11 0 19-10 19-22s-8-39-19-39c-10 0-18 27-18 39z"/>
  <path fill="#A6BDE6" d="M331 389c0-11 9-31 16-31h2c-2-3-4-6-6-6-7 0-12 26-12 37z"/>
  <path fill="#8B9DD7" d="M369 393c0 8-5 15-12 15s-12-7-12-15 5-27 12-27 12 19 12 27z"/>
  <path fill="#363254" d="M346 393c0-9 6-26 11-26s11 17 11 26c0 7-5 14-11 14s-11-7-11-14zm-2 0c0 9 6 16 13 16 8 0 14-7 14-16 0-8-6-28-14-28s-13 20-13 28z"/>
  <path fill="#A6BDE6" d="M350 388c-1-6 5-16 10-16h1l-4-3c-5 2-8 13-7 19z"/>
  <path fill="#363254" d="M58 171c-2 2-1 4 1 5 2 2 4 1 6-1 8-10 25-13 33-10h5c1-1 0-3-1-3-12-4-34-5-44 9zM91 217c-7 1-13-3-14-9 0-7 5-13 12-14 7-2 14 2 14 8 1 7-4 13-12 15zm15-15c-1-8-8-12-17-11-8 2-14 10-14 17 1 7 9 12 17 10 9-1 15-9 14-16z"/>
  <path fill="#FCFCFC" d="M103 203c0 6-4 11-11 13-6 1-11-3-12-8-1-6 4-12 10-13 7-1 12 2 13 8z"/>
  <path fill="#363254" d="M102 203c-2-4-6-7-10-6-2 1-4 3-4 5l5 2-5 4c2 4 6 6 10 5s6-6 4-10z"/>
  <path fill="#fff" d="M98 201c1 0 2 1 2 3 1 1 0 3-1 3s-2-1-2-3c-1-1 0-3 1-3z"/>
  <path fill="#363254" d="M82 195c-6 5-8 12-4 17 0-1 1 0 0 0-7-4-8-15-2-22 6-6 23-10 23-8-1 2-6 6-12 9l-5 4M192 267c0 2 1 3 3 3h10c2 0 4-1 4-3l3-14c0-2 2-3 4-3h11l16-2 11-7a34 34 0 0011-19c1-9 0-16-4-21-5-7-18-7-18-7l-7-1h-26c-2 0-3 2-4 4l-14 70zm41-61c6 0 11 1 13 3s2 6 1 12-3 10-6 13l-12 3-7 1h-4c-1 0-3-2-2-4l5-25c0-2 2-3 4-3h8z"/>
  <path stroke="#fff" stroke-width="5.3" d="M192 267c0 2 1 3 3 3h10c2 0 4-1 4-3l3-14c0-2 2-3 4-3h11l16-2 11-7a34 34 0 0011-19c1-9 0-16-4-21-5-7-18-7-18-7l-7-1h-26c-2 0-3 2-4 4l-14 70zm41-61c6 0 11 1 13 3s2 6 1 12-3 10-6 13l-12 3-7 1h-4c-1 0-3-2-2-4l5-25c0-2 2-3 4-3h8z"/>
  <path fill="#363254" d="M281 176c0-2 2-3 4-3h10c2 0 3 1 3 3l-3 14c0 2 1 3 3 3h8l6 1s13 0 17 4c3 4 4 9 3 16l-7 33-3 3h-11c-2 0-3-2-3-3l6-28 1-6-1-5c-2-2-4-2-9-2h-10c-2 0-3 1-4 3l-7 38c0 1-2 3-4 3h-10c-2 0-3-2-3-3l14-71z"/>
  <path stroke="#fff" stroke-width="5.3" d="M281 176c0-2 2-3 4-3h10c2 0 3 1 3 3l-3 14c0 2 1 3 3 3h8l6 1s13 0 17 4c3 4 4 9 3 16l-7 33-3 3h-11c-2 0-3-2-3-3l6-28 1-6-1-5c-2-2-4-2-9-2h-10c-2 0-3 1-4 3l-7 38c0 1-2 3-4 3h-10c-2 0-3-2-3-3l14-71z"/>
  <path fill="#363254" d="M333 267c-1 2 1 3 2 3h11l4-3 2-14c1-2 2-3 4-3h11l16-2 11-7a34 34 0 0011-19c2-9 0-16-4-21-5-7-18-7-18-7l-7-1h-26l-4 4-13 70zm40-61c7 0 11 1 13 3s3 6 1 12c-1 6-3 10-6 13l-12 3-7 1h-3c-2 0-3-2-3-4l5-25c0-2 2-3 4-3h8z"/>
  <path stroke="#fff" stroke-width="5.3" d="M333 267c-1 2 1 3 2 3h11l4-3 2-14c1-2 2-3 4-3h11l16-2 11-7a34 34 0 0011-19c2-9 0-16-4-21-5-7-18-7-18-7l-7-1h-26l-4 4-13 70zm40-61c7 0 11 1 13 3s3 6 1 12c-1 6-3 10-6 13l-12 3-7 1h-3c-2 0-3-2-3-4l5-25c0-2 2-3 4-3h8z"/>
  <path fill="#363254" d="M192 267c0 2 1 3 3 3h10c2 0 4-1 4-3l3-14c0-2 2-3 4-3h11l16-2 11-7a34 34 0 0011-19c1-9 0-16-4-21-5-7-18-7-18-7l-7-1h-26c-2 0-3 2-4 4l-14 70zm41-61c6 0 11 1 13 3s2 6 1 12-3 10-6 13l-12 3-7 1h-4c-1 0-3-2-2-4l5-25c0-2 2-3 4-3h8zM281 176c0-2 2-3 4-3h10c2 0 3 1 3 3l-3 14c0 2 1 3 3 3h8l6 1s13 0 17 4c3 4 4 9 3 16l-7 33-3 3h-11c-2 0-3-2-3-3l6-28 1-6-1-5c-2-2-4-2-9-2h-10c-2 0-3 1-4 3l-7 38c0 1-2 3-4 3h-10c-2 0-3-2-3-3l14-71zM333 267c-1 2 1 3 2 3h11l4-3 2-14c1-2 2-3 4-3h11l16-2 11-7a34 34 0 0011-19c2-9 0-16-4-21-5-7-18-7-18-7l-7-1h-26l-4 4-13 70zm40-61c7 0 11 1 13 3s3 6 1 12c-1 6-3 10-6 13l-12 3-7 1h-3c-2 0-3-2-3-4l5-25c0-2 2-3 4-3h8z"/>
  <path fill="url(#paint10_linear)" d="M123 130s31-21 50-28c6-3 51-14 58 62 4 41-3 70-38 75-20 3-17 19-17 19"/>
  <path fill="#363254" d="M172 98c-20 7-50 28-51 29-2 1-2 3-1 5 1 1 4 2 5 1s31-21 49-28c1 0 15-5 28 3 14 8 22 27 25 56 4 46-6 67-34 72-8 1-14 4-18 9-4 6-3 13-3 13 0 2 2 4 4 3 3 0 4-2 4-4 0 0-1-4 2-8 2-3 6-5 12-6 42-6 44-46 41-80-3-31-13-52-29-62-16-9-33-4-34-3z"/>
  <path fill="url(#paint11_linear)" d="M154 124c35-21 54-10 54-10-15-14-32-10-36-8-19 7-56 33-56 33s-5 9 5 7l33-22z"/>
  <path fill="#363254" d="M142 225c0 18-6 34-15 42-4 3-9 5-14 5l-2 2c0 2 1 3 2 3 6 0 12-2 17-7 10-9 17-26 17-45l-2-2c-2 0-3 1-3 2z"/>
  <path fill="#363254" d="M153 213c-2 4-5 7-9 8-4 0-8-2-11-5-1-1-2-2-3-1-2 1-2 3-1 4 4 5 10 7 15 6 6 0 11-4 14-10 0-1 0-3-2-3-1-1-2 0-3 1z"/>
  <defs>
    <linearGradient id="paint0_linear" x1="210.5" x2="364.8" y1="209.4" y2="325.3" gradientUnits="userSpaceOnUse">
      <stop stop-color="#8C9BD6"/>
      <stop offset="1" stop-color="#505E9B"/>
    </linearGradient>
    <linearGradient id="paint1_linear" x1="312" x2="467.6" y1="77.5" y2="194.3" gradientUnits="userSpaceOnUse">
      <stop stop-color="#808FD0"/>
      <stop offset="1" stop-color="#505E9B"/>
    </linearGradient>
    <linearGradient id="paint2_linear" x1="140.3" x2="293.9" y1="300" y2="415.5" gradientUnits="userSpaceOnUse">
      <stop stop-color="#8C9BD6"/>
      <stop offset="1" stop-color="#505E9B"/>
    </linearGradient>
    <linearGradient id="paint3_linear" x1="198.4" x2="352" y1="226.2" y2="341.6" gradientUnits="userSpaceOnUse">
      <stop stop-color="#8C9BD6"/>
      <stop offset="1" stop-color="#505E9B"/>
    </linearGradient>
    <linearGradient id="paint4_linear" x1="206.4" x2="355.5" y1="212.7" y2="324.8" gradientUnits="userSpaceOnUse">
      <stop stop-color="#808FD0"/>
      <stop offset="1" stop-color="#505E9B"/>
    </linearGradient>
    <linearGradient id="paint5_linear" x1="180.6" x2="335.7" y1="249.4" y2="365.9" gradientUnits="userSpaceOnUse">
      <stop stop-color="#8C9BD6"/>
      <stop offset="1" stop-color="#505E9B"/>
    </linearGradient>
    <linearGradient id="paint6_linear" x1="-33" x2="69.1" y1="211.1" y2="361.2" gradientUnits="userSpaceOnUse">
      <stop stop-color="#FAFAFD"/>
      <stop offset="1" stop-color="#8892D2"/>
    </linearGradient>
    <linearGradient id="paint7_linear" x1="137" x2="256" y1="87.6" y2="262.5" gradientUnits="userSpaceOnUse">
      <stop stop-color="#FAFAFD"/>
      <stop offset="1" stop-color="#8892D2"/>
    </linearGradient>
    <linearGradient id="paint8_linear" x1="137.8" x2="291.4" y1="303.8" y2="419.2" gradientUnits="userSpaceOnUse">
      <stop stop-color="#8C9BD6"/>
      <stop offset="1" stop-color="#505E9B"/>
    </linearGradient>
    <linearGradient id="paint9_linear" x1="207.7" x2="361.8" y1="213" y2="328.7" gradientUnits="userSpaceOnUse">
      <stop stop-color="#8C9BD6"/>
      <stop offset="1" stop-color="#505E9B"/>
    </linearGradient>
    <linearGradient id="paint10_linear" x1="217" x2="370.8" y1="201" y2="316.6" gradientUnits="userSpaceOnUse">
      <stop stop-color="#8C9BD6"/>
      <stop offset="1" stop-color="#505E9B"/>
    </linearGradient>
    <linearGradient id="paint11_linear" x1="134.1" x2="255.7" y1="89.5" y2="268.2" gradientUnits="userSpaceOnUse">
      <stop stop-color="#FAFAFD"/>
      <stop offset="1" stop-color="#8892D2"/>
    </linearGradient>
  </defs>
</svg>
