<svg width="113" height="113" viewBox="0 0 113 113" fill="none" xmlns="http://www.w3.org/2000/svg">
<rect width="112.165" height="112.166" fill="black" fill-opacity="0"/>
<rect width="112.165" height="112.166" fill="black" fill-opacity="0"/>
<rect width="112.165" height="112.166" fill="black" fill-opacity="0"/>
<rect width="112.165" height="112.166" fill="black" fill-opacity="0"/>
<path d="M112.165 56.079C112.165 87.055 87.056 112.166 56.081 112.166C25.108 112.166 0 87.055 0 56.079C0 25.108 25.107 0 56.081 0C87.056 0 112.165 25.108 112.165 56.079Z" fill="black"/>
<path d="M80.603 20.75C74.906 20.945 69.933 24.09 66.23 28.43C62.13 33.195 59.406 38.841 57.439 44.61C53.925 41.728 51.216 37.999 45.575 36.377C41.216 35.124 36.639 35.64 32.429 38.776C30.437 40.265 29.062 42.514 28.409 44.635C26.717 50.133 30.187 55.031 31.763 56.786L35.21 60.477C35.919 61.202 37.632 63.09 36.794 65.796C35.894 68.743 32.343 70.646 28.702 69.527C27.075 69.028 24.739 67.817 25.263 66.114C25.478 65.415 25.978 64.889 26.247 64.293C26.491 63.772 26.61 63.386 26.685 63.153C27.35 60.984 26.44 58.159 24.115 57.44C21.944 56.774 19.724 57.302 18.863 60.095C17.886 63.269 19.406 69.03 27.544 71.536C37.079 74.471 45.141 69.277 46.286 62.51C47.007 58.271 45.091 55.118 41.585 51.069L38.726 47.906C36.996 46.177 36.402 43.229 38.193 40.964C39.705 39.052 41.857 38.238 45.384 39.196C50.534 40.592 52.827 44.165 56.655 47.047C55.077 52.234 54.042 57.439 53.108 62.106L52.534 65.587C49.798 79.939 47.708 87.822 42.278 92.347C41.184 93.126 39.62 94.29 37.264 94.374C36.026 94.411 35.627 93.56 35.61 93.188C35.583 92.323 36.313 91.924 36.798 91.536C37.525 91.14 38.622 90.483 38.546 88.38C38.468 85.896 36.409 83.741 33.435 83.839C31.206 83.914 27.81 86.01 27.938 89.85C28.069 93.817 31.765 96.788 37.339 96.6C40.318 96.498 46.972 95.288 53.527 87.495C61.158 78.56 63.293 68.32 64.899 60.824L66.692 50.927C67.684 51.046 68.751 51.127 69.909 51.155C79.413 51.356 84.165 46.435 84.237 42.853C84.286 40.686 82.817 38.551 80.758 38.602C79.287 38.643 77.438 39.624 76.996 41.659C76.56 43.654 80.019 45.457 77.316 47.212C75.396 48.454 71.955 49.328 67.107 48.619L67.988 43.747C69.787 34.509 72.006 23.147 80.424 22.869C81.039 22.84 83.281 22.895 83.334 24.381C83.348 24.874 83.225 25.004 82.645 26.138C82.053 27.022 81.831 27.778 81.86 28.642C81.94 30.998 83.733 32.55 86.331 32.46C89.804 32.344 90.8 28.964 90.743 27.227C90.597 23.142 86.294 20.562 80.603 20.75Z" fill="white"/>
</svg>
